<svg xmlns="http://www.w3.org/2000/svg" viewBox="0 0 1200 1200">
  <!-- Orange background -->
  <rect width="1200" height="1200" fill="#FF8C00"/>
  
  <!-- Popcorn scattered around -->
  <circle cx="200" cy="150" r="8" fill="#FFD700" opacity="0.9"/>
  <circle cx="350" cy="80" r="6" fill="#FFD700" opacity="0.8"/>
  <circle cx="500" cy="120" r="7" fill="#FFD700" opacity="0.85"/>
  <circle cx="150" cy="280" r="5" fill="#FFD700" opacity="0.9"/>
  <circle cx="420" cy="250" r="6" fill="#FFD700" opacity="0.8"/>
  <circle cx="280" cy="180" r="7" fill="#FFD700" opacity="0.85"/>
  <circle cx="600" cy="200" r="8" fill="#FFD700" opacity="0.9"/>
  <circle cx="750" cy="150" r="6" fill="#FFD700" opacity="0.8"/>
  <circle cx="900" cy="180" r="7" fill="#FFD700" opacity="0.85"/>
  <circle cx="180" cy="420" r="5" fill="#FFD700" opacity="0.9"/>
  <circle cx="450" cy="380" r="6" fill="#FFD700" opacity="0.8"/>
  <circle cx="620" cy="350" r="7" fill="#FFD700" opacity="0.85"/>
  <circle cx="800" cy="320" r="8" fill="#FFD700" opacity="0.9"/>
  <circle cx="950" cy="280" r="6" fill="#FFD700" opacity="0.8"/>
  
  <!-- More scattered popcorn -->
  <circle cx="100" cy="550" r="7" fill="#FFD700" opacity="0.85"/>
  <circle cx="300" cy="520" r="5" fill="#FFD700" opacity="0.9"/>
  <circle cx="500" cy="480" r="6" fill="#FFD700" opacity="0.8"/>
  <circle cx="700" cy="450" r="8" fill="#FFD700" opacity="0.9"/>
  <circle cx="900" cy="420" r="7" fill="#FFD700" opacity="0.85"/>
  <circle cx="1100" cy="380" r="6" fill="#FFD700" opacity="0.8"/>
  
  <!-- Clapperboard -->
  <rect x="1000" y="600" width="150" height="100" fill="#000"/>
  <rect x="1020" y="620" width="110" height="60" fill="#FFF"/>
  <rect x="1000" y="700" width="10" height="50" fill="#000"/>
  <rect x="1030" y="695" width="60" height="3" fill="#000"/>
</svg>
